<mxfile host="app.diagrams.net" modified="2024-03-04T11:00:58.642Z" agent="Mozilla/5.0 (Macintosh; Intel Mac OS X 10_15_7) AppleWebKit/537.36 (KHTML, like Gecko) Chrome/121.0.0.0 Safari/537.36" version="24.0.1" etag="VsulqXSuV2GugJi5kskG" type="github">
  <diagram name="PÃ¡gina-1" id="6x3vz3bOemwIZeNB5c-J">
    <mxGraphModel>
      <root>
        <mxCell id="0" />
        <mxCell id="1" parent="0" />
      </root>
    </mxGraphModel>
  </diagram>
</mxfile>
